<svg width="32" height="32" viewBox="0 0 32 32" fill="none" xmlns="http://www.w3.org/2000/svg">
<path d="M22.0355 8.00012C20.2799 8.00012 18.655 8.28262 17.2194 8.80386L17.995 1.10959C18.0625 0.457104 17.4881 -0.0735128 16.8331 0.00836097C11.8519 0.633352 8.00012 4.85267 8.00012 9.96447C8.00012 11.7201 8.28261 13.345 8.80386 14.7806L1.10959 14.005C0.457104 13.9375 -0.0735128 14.5119 0.00836097 15.1669C0.633352 20.1481 4.85266 23.9999 9.96446 23.9999C11.7201 23.9999 13.345 23.7174 14.7806 23.1961L14.005 30.8904C13.9394 31.5423 14.5119 32.0735 15.1669 31.9916C20.1481 31.3667 23.9999 27.1473 23.9999 22.0355C23.9999 20.2799 23.7174 18.655 23.1961 17.2194L30.8904 17.995C31.5429 18.0606 32.0735 17.4881 31.9916 16.8331C31.3666 11.8519 27.1473 8.00012 22.0355 8.00012ZM16 18C15.6044 18 15.2178 17.8827 14.8889 17.6629C14.56 17.4432 14.3036 17.1308 14.1523 16.7654C14.0009 16.3999 13.9613 15.9978 14.0385 15.6098C14.1156 15.2219 14.3061 14.8655 14.5858 14.5858C14.8655 14.3061 15.2219 14.1156 15.6098 14.0385C15.9978 13.9613 16.3999 14.0009 16.7654 14.1523C17.1308 14.3036 17.4432 14.56 17.6629 14.8889C17.8827 15.2178 18 15.6044 18 16C18 16.5304 17.7893 17.0391 17.4142 17.4142C17.0391 17.7893 16.5304 18 16 18Z" fill="white"/>
</svg>
