<svg width="32" height="32" viewBox="0 0 32 32" fill="none" xmlns="http://www.w3.org/2000/svg">
<path fill-rule="evenodd" clip-rule="evenodd" d="M8 0C3.58172 0 0 3.58173 0 8.00001V10.6667V15.3333V31C0 31.5523 0.447714 32 0.999999 32L31 32C31.5523 32 32 31.5523 32 31V18.6667C32 14.2484 28.4183 10.6667 24 10.6667C22.5272 10.6667 21.3333 9.47276 21.3333 8C21.3333 3.58172 17.7516 0 13.3333 0H8ZM2 24C2 23.4477 2.44772 23 3 23H5V28H7V23H9V28H11V23H17V28H19V23H21V28H23V23H25V28H27V23H29C29.5523 23 30 23.4477 30 24V29C30 29.5523 29.5523 30 29 30H3C2.44771 30 2 29.5523 2 29V24Z" fill="white"/>
</svg>
