<svg width="24" height="32" viewBox="0 0 24 32" fill="none" xmlns="http://www.w3.org/2000/svg">
<g clip-path="url(#clip0)">
<path d="M23.6446 23.6555L18.6515 17.9999H20.5658C21.129 17.9999 21.6271 17.6874 21.8646 17.1836C22.1021 16.6811 22.024 16.1049 21.6596 15.6805L16.7765 9.99986H18.5821C19.1508 9.99986 19.6633 9.66548 19.8858 9.14923C20.1058 8.64111 20.0021 8.04986 19.6208 7.64423L12.729 0.301733C12.3521 -0.101392 11.649 -0.101392 11.2715 0.301733L4.37896 7.64423C3.99771 8.04986 3.89458 8.64111 4.11396 9.14923C4.33646 9.66548 4.84959 9.99986 5.41833 9.99986H7.22396L2.34021 15.6817C1.97708 16.1055 1.89896 16.6811 2.13583 17.1842C2.37333 17.6874 2.87084 17.9999 3.43459 17.9999H5.34896L0.355835 23.6555C-0.0191649 24.0799 -0.104165 24.6611 0.133335 25.1717C0.36771 25.6749 0.883335 25.9999 1.44646 25.9999H10.0002V27.528L8.10709 30.553C7.77459 31.218 8.25834 32.0005 9.00146 32.0005H14.999C15.7421 32.0005 16.2258 31.218 15.8933 30.553L14.0002 27.528V25.9999H22.554C23.1171 25.9999 23.6327 25.6749 23.8671 25.1717C24.1046 24.6611 24.0196 24.0799 23.6446 23.6555Z" fill="white"/>
</g>
<defs>
<clipPath id="clip0">
<rect width="24" height="32" fill="white"/>
</clipPath>
</defs>
</svg>
