<svg width="40" height="32" viewBox="0 0 40 32" fill="none" xmlns="http://www.w3.org/2000/svg">
<path d="M7.21117 8.55651L13.593 10.8802C15.7923 5.78404 18.981 1.86221 22.2804 0.0241054C16.2879 -0.281516 10.4818 2.33408 6.74743 7.01153C6.32931 7.53652 6.58118 8.32714 7.21117 8.55651ZM15.4767 11.5665L30.3815 16.9933C32.6165 9.40713 31.5503 2.5147 27.7172 1.11972C27.2547 0.95097 26.7716 0.869721 26.2741 0.869721C22.6479 0.870346 18.2573 5.1928 15.4767 11.5665ZM32.5921 3.78156C32.9809 4.8003 33.269 5.94404 33.4171 7.2309C33.7759 10.349 33.3284 13.9952 32.2328 17.667L38.6465 20.002C39.2771 20.2314 39.9783 19.7876 39.9946 19.1164C40.1396 13.1358 37.3752 7.40152 32.5921 3.78156ZM34.9996 27.9988H20.066L24.1247 16.8439L20.366 15.4752L15.8098 27.9982H0.999989C0.447495 27.9982 0 28.4457 0 28.9988V30.9994C0 31.5519 0.447495 32 0.999989 32H34.9996C35.5521 32 35.9996 31.5519 35.9996 30.9994V28.9988C35.9996 28.4463 35.5521 27.9988 34.9996 27.9988Z" fill="white"/>
</svg>
