<svg width="36" height="32" viewBox="0 0 36 32" fill="none" xmlns="http://www.w3.org/2000/svg">
<path d="M35.1312 23.9938C33.7875 23.8438 32.5 23.3375 31.5125 22.5625C30.6312 21.8688 29.375 21.8563 28.5 22.5625C26.1312 24.4625 21.8 24.4625 19.3937 22.4688C18.55 21.7688 17.3312 21.9 16.475 22.5813C14.1 24.4625 9.79375 24.4563 7.4 22.475C6.55625 21.775 5.31875 21.9188 4.45625 22.6C3.4875 23.3625 2.20625 23.8563 0.85 24C0.35625 24.05 0 24.4875 0 24.9813V26.9938C0 27.5625 0.475 28.0438 1.04375 27.9938C2.84375 27.8375 4.55 27.2813 6.00625 26.375C9.5375 28.5375 14.5687 28.5063 18.0062 26.375C21.5375 28.5375 26.5687 28.5063 30.0062 26.375C31.4625 27.2625 33.1875 27.8313 34.95 27.9875C35.5187 28.0375 35.9937 27.5563 35.9937 26.9875V25.0125C36 24.5125 35.6375 24.05 35.1312 23.9938ZM35.1312 14.9938C33.7875 14.8438 32.5 14.3375 31.5125 13.5625C30.6312 12.8688 29.375 12.8563 28.5 13.5625C26.1312 15.4625 21.8 15.4625 19.3937 13.4688C18.55 12.7688 17.3312 12.9 16.475 13.5813C14.1 15.4625 9.79375 15.4563 7.4 13.475C6.55625 12.775 5.31875 12.9188 4.45625 13.6C3.4875 14.3625 2.20625 14.8563 0.85 15C0.35625 15.05 0 15.4875 0 15.9813V17.9938C0 18.5625 0.475 19.0438 1.04375 18.9938C2.84375 18.8375 4.55 18.2813 6.00625 17.375C9.5375 19.5375 14.5687 19.5063 18.0062 17.375C21.5375 19.5375 26.5687 19.5063 30.0062 17.375C31.4625 18.2625 33.1875 18.8313 34.95 18.9875C35.5187 19.0375 35.9937 18.5563 35.9937 17.9875V16.0125C36 15.5125 35.6375 15.05 35.1312 14.9938ZM35.1312 5.99378C33.7875 5.83753 32.5 5.33753 31.5125 4.56253C30.6312 3.86878 29.375 3.85628 28.5 4.56253C26.1312 6.46253 21.8 6.46253 19.3937 4.46878C18.55 3.76878 17.3312 3.90003 16.475 4.58128C14.1 6.46253 9.79375 6.45628 7.4 4.47503C6.55625 3.77503 5.31875 3.91878 4.45625 4.60003C3.4875 5.36253 2.20625 5.85628 0.85 6.00003C0.35625 6.05003 0 6.48753 0 6.98128V8.99378C0 9.56253 0.475 10.0438 1.04375 9.99378C2.84375 9.83753 4.55 9.28128 6.00625 8.37503C9.5375 10.5375 14.5687 10.5063 18.0062 8.37503C21.5375 10.5375 26.5687 10.5063 30.0062 8.37503C31.4625 9.26253 33.1875 9.83128 34.95 9.98753C35.5187 10.0375 35.9937 9.55628 35.9937 8.98753V7.01253C36 6.51253 35.6375 6.05003 35.1312 5.99378Z" fill="white"/>
</svg>
